# Wavefront OBJ exported by MilkShape 3D

mtllib Torus.mtl
o test

v -64.000000 64.000000 62.000000
v -64.000000 -64.000000 62.000000
v 64.000000 64.000000 62.000000
v 64.000000 -64.000000 62.000000
v 64.000000 64.000000 -62.000000
v 64.000000 -64.000000 -62.000000
v -64.000000 64.000000 -62.000000
v -64.000000 -64.000000 -62.000000
# 8 vertices

vt 0.000000 1.000000
vt 0.000000 0.000000
vt 1.000000 1.000000
vt 1.000000 0.000000
# 4 texture coordinates

vn 0.000000 0.000000 1.000000
vn 1.000000 0.000000 0.000000
vn 0.000000 0.000000 -1.000000
vn -1.000000 0.000000 0.000000
vn 0.000000 1.000000 0.000000
vn 0.000000 -1.000000 0.000000
# 6 normals

g Box01
usemtl default
s 1
f 1/1/1 2/1/1 3/1/1
f 2/1/1 4/1/1 3/1/1

f 3/1/2 4/1/2 5/1/2
f 4/1/2 6/1/2 5/1/2

f 5/1/3 6/1/3 7/1/3
f 6/1/3 8/1/3 7/1/3

f 7/1/4 8/1/4 1/1/4
f 8/1/4 2/1/4 1/1/4

f 7/1/5 1/1/5 5/1/5
f 1/1/5 3/1/5 5/1/5
f 2/1/6 8/1/6 4/1/6
f 8/1/6 6/1/6 4/1/6
# 12 triangles in group

# 12 triangles total

